# Blender v2.78 (sub 0) OBJ File: ''
# www.blender.org
mtllib SemanticAsymmetricCalibrationNew.mtl
o mid_bottom_front_2f
v 50.000397 -165.000549 -0.000796
v 50.000427 390 -0.000583
v 50.000397 -165.000396 -405.000305
v 50.000427 390.999604 -405.000092
vn 1.0000 -0.0000 -0.0000
usemtl material_0
s 1
f 3//1 4//1 2//1
f 2//1 1//1 3//1
o mid_bottom_back_2b
v -279.999908 -165.000762 -0.000796
v -279.999847 390 -405.000305
v -279.999908 -165.000762 -405.000305
v -279.999847 390 -0.000583
vn -1.0000 0.0000 0.0000
usemtl material_0
s 1
f 7//2 5//2 8//2
f 8//2 6//2 7//2
o mid_bottom_down_2d
v -279.999847 390 -405.000305
v 50.000397 -165.000396 -405.000305
v -279.999908 -165.00061 -405.000305
v 50.000427 390 -405.000305
vn 0.0000 0.0000 -1.0000
usemtl material_0
s 1
f 9//3 10//3 11//3
f 10//3 9//3 12//3
o mid_bottom_up_2u
v 50.000397 -165.000549 -0.000796
v 50.000427 390 -0.000583
v -279.999908 -165.000762 -0.000796
v -279.999847 390 -0.000583
vn 0.0000 -0.0000 1.0000
usemtl material_0
s 1
f 13//4 14//4 15//4
f 16//4 15//4 14//4
o mid_bottom_right_2r
v 50.000397 -165.000549 -0.000796
v -279.999908 -165.000762 -0.000796
v 50.000397 -165.000396 -405.000305
v -279.999908 -165.00061 -405.000305
vn 0.0000 -1.0000 -0.0000
usemtl material_0
s 1
f 19//5 18//5 20//5
f 19//5 17//5 18//5
o mid_bottom_left_2l
v 50.000427 390 -0.000583
v -279.999847 390 -405.000305
v 50.000427 390 -405.000305
v -279.999847 390 -0.000583
vn -0.0000 1.0000 0.0000
usemtl material_0
s 1
f 24//6 21//6 23//6
f 23//6 22//6 24//6
o mid_top_right_3r
v -505 -165.000549 405.000061
v 50.000427 -165.000549 405.000061
v -505 -165.000488 0.000554
v 50.000427 -165.000488 0.000554
vn 0.0000 -1.0000 -0.0000
usemtl material_0
s 1
f 27//7 28//7 26//7
f 26//7 25//7 27//7
o mid_top_left_3l
v -505 164.999451 405.000122
v 50.000427 164.999512 0.000608
v -505 164.999512 0.000608
v 50.000427 164.999451 405.000122
vn 0.0000 1.0000 0.0000
usemtl material_0
s 1
f 31//8 29//8 32//8
f 32//8 30//8 31//8
o mid_top_down_3d
v 50.000427 164.999512 0.000608
v -505 -165.000488 0.000554
v -505 164.999512 0.000608
v 50.000427 -165.000488 0.000554
vn 0.0000 0.0000 -1.0000
usemtl material_0
s 1
f 33//9 34//9 35//9
f 34//9 33//9 36//9
o mid_top_up_3u
v -505 -165.000549 405.000061
v 50.000427 -165.000549 405.000061
v -505 164.999451 405.000122
v 50.000427 164.999451 405.000122
vn 0.0000 -0.0000 1.0000
usemtl material_0
s 1
f 37//10 38//10 39//10
f 40//10 39//10 38//10
o mid_top_front_3f
v 50.000427 -165.000549 405.000061
v 50.000427 164.999512 0.000608
v 50.000427 -165.000488 0.000554
v 50.000427 164.999451 405.000122
vn 1.0000 0.0000 0.0000
usemtl material_0
s 1
f 44//11 41//11 43//11
f 43//11 42//11 44//11
o mid_top_back_3b
v -505 -165.000549 405.000061
v -505 164.999451 405.000122
v -505 -165.000488 0.000554
v -505 164.999512 0.000608
vn -1.0000 -0.0000 0.0000
usemtl material_0
s 1
f 47//12 46//12 48//12
f 47//12 45//12 46//12
o bottom_right_1r
v -279.999969 -165.000427 -405.000305
v 275 -165.000427 -405.000305
v -279.999969 -165.000351 -810
v 275 -165.000351 -810
vn 0.0000 -1.0000 -0.0000
usemtl material_0
s 1
f 51//13 52//13 50//13
f 50//13 49//13 51//13
o bottom_up_1u
v -279.999969 -165.000427 -405.000305
v 275 -165.000427 -405.000305
v -279.999969 164.999573 -405.000305
v 275 164.999573 -405.000305
vn 0.0000 -0.0000 1.0000
usemtl material_0
s 1
f 53//14 54//14 55//14
f 56//14 55//14 54//14
o bottom_back_1b
v -279.999969 -165.000427 -405.000305
v -279.999969 164.999573 -405.000305
v -279.999969 -165.000351 -810
v -279.999969 164.999649 -810
vn -1.0000 0.0000 0.0000
usemtl material_0
s 1
f 59//15 58//15 60//15
f 59//15 57//15 58//15
o bottom_front_1f
v 275 -165.000427 -405.000305
v 275 164.999649 -810
v 275 -165.000351 -810
v 275 164.999573 -405.000305
vn 1.0000 0.0000 0.0000
usemtl material_0
s 1
f 64//16 61//16 63//16
f 63//16 62//16 64//16
o bottom_down_1d
v 275 164.999649 -810
v -279.999969 -165.000351 -810
v -279.999969 164.999649 -810
v 275 -165.000351 -810
vn 0.0000 0.0000 -1.0000
usemtl material_0
s 1
f 65//17 66//17 67//17
f 66//17 65//17 68//17
o bottom_left_1l
v -279.999969 164.999573 -405.000305
v 275 164.999649 -810
v -279.999969 164.999649 -810
v 275 164.999573 -405.000305
vn 0.0000 1.0000 0.0000
usemtl material_0
s 1
f 71//18 69//18 72//18
f 72//18 70//18 71//18
o top_front_4f
v 50.000427 -390 810
v 50.000458 165.000504 810
v 50.000427 -390 405
v 50.000458 165.000702 405
vn 1.0000 -0.0000 -0.0000
usemtl material_0
s 1
f 75//19 76//19 74//19
f 74//19 73//19 75//19
o top_down_4d
v -279.999817 165.000458 405.000305
v 50.000427 -390 405.000092
v -279.999878 -390 405.000092
v 50.000458 165.000702 405.000305
vn -0.0000 0.0000 -1.0000
usemtl material_0
s 1
f 77//20 78//20 79//20
f 78//20 77//20 80//20
o top_right_4r
v 50.000427 -390 810
v -279.999878 -390 810
v 50.000427 -390 405.000092
v -279.999878 -390 405.000092
vn 0.0000 -1.0000 -0.0000
usemtl material_0
s 1
f 83//21 82//21 84//21
f 83//21 81//21 82//21
o top_up_4u
v 50.000427 -390 810
v 50.000458 165.000504 810
v -279.999878 -390 810
v -279.999817 165.000259 810
vn 0.0000 -0.0000 1.0000
usemtl material_0
s 1
f 85//22 86//22 87//22
f 88//22 87//22 86//22
o top_back_4b
v -279.999878 -390 810
v -279.999817 165.000458 405.000305
v -279.999878 -390 405.000092
v -279.999817 165.000259 810
vn -1.0000 0.0000 0.0000
usemtl material_0
s 1
f 91//23 89//23 92//23
f 92//23 90//23 91//23
o top_left_4l
v 50.000458 165.000504 810
v -279.999817 165.000458 405.000305
v 50.000458 165.000702 405.000305
v -279.999817 165.000259 810
vn -0.0000 1.0000 0.0000
usemtl material_0
s 1
f 96//24 93//24 95//24
f 95//24 94//24 96//24
