####
#
# OBJ File Generated by Meshlab
#
####
# Object asymmetric_box_rotated.obj
#
# Vertices: 96
# Faces: 48
#
####
mtllib ./asymmetric_box_rotated.obj.mtl

vn 1.000000 0.000000 -0.000000
v 50.000397 0.000796 -165.000549 0.752941 0.752941 0.752941
vn 1.000000 0.000000 -0.000000
v 50.000427 0.000583 394.999420 0.752941 0.752941 0.752941
vn 1.000000 0.000000 -0.000000
v 50.000397 410.000305 -165.000397 0.752941 0.752941 0.752941
vn 1.000000 0.000000 -0.000000
v 50.000427 410.000092 394.999603 0.752941 0.752941 0.752941
vn -1.000000 0.000000 0.000000
v -279.999908 0.000796 -165.000763 0.752941 0.752941 0.752941
vn -1.000000 0.000000 0.000000
v -279.999847 410.000092 394.999359 0.752941 0.752941 0.752941
vn -1.000000 0.000000 0.000000
v -279.999908 410.000305 -165.000763 0.752941 0.752941 0.752941
vn -1.000000 0.000000 0.000000
v -279.999847 0.000583 394.999359 0.752941 0.752941 0.752941
vn -0.000000 1.000000 0.000000
v -279.999847 410.000092 394.999359 0.752941 0.752941 0.752941
vn -0.000000 1.000000 0.000000
v 50.000397 410.000305 -165.000397 0.752941 0.752941 0.752941
vn -0.000000 1.000000 0.000000
v -279.999908 410.000305 -165.000610 0.752941 0.752941 0.752941
vn -0.000000 1.000000 0.000000
v 50.000427 410.000092 394.999603 0.752941 0.752941 0.752941
vn 0.000000 -1.000000 -0.000000
v 50.000397 0.000796 -165.000549 0.752941 0.752941 0.752941
vn 0.000000 -1.000000 -0.000000
v 50.000427 0.000583 394.999420 0.752941 0.752941 0.752941
vn 0.000000 -1.000000 -0.000000
v -279.999908 0.000796 -165.000763 0.752941 0.752941 0.752941
vn 0.000000 -1.000000 -0.000000
v -279.999847 0.000583 394.999176 0.752941 0.752941 0.752941
vn 0.000001 0.000000 -1.000000
v 50.000397 0.000796 -165.000549 0.752941 0.752941 0.752941
vn 0.000001 0.000000 -1.000000
v -279.999908 0.000796 -165.000763 0.752941 0.752941 0.752941
vn 0.000001 0.000000 -1.000000
v 50.000397 410.000305 -165.000397 0.752941 0.752941 0.752941
vn 0.000001 0.000000 -1.000000
v -279.999908 410.000305 -165.000610 0.752941 0.752941 0.752941
vn -0.000001 -0.000000 1.000000
v 50.000427 0.000583 394.999420 0.752941 0.752941 0.752941
vn -0.000001 -0.000000 1.000000
v -279.999847 410.000092 394.999359 0.752941 0.752941 0.752941
vn -0.000001 -0.000000 1.000000
v 50.000427 410.000092 394.999603 0.752941 0.752941 0.752941
vn -0.000001 -0.000000 1.000000
v -279.999847 0.000583 394.999176 0.752941 0.752941 0.752941
vn 0.000000 0.000000 -1.000000
v -509.999573 -410.000061 -165.000549 0.752941 0.752941 0.752941
vn 0.000000 0.000000 -1.000000
v 50.000427 -410.000061 -165.000549 0.752941 0.752941 0.752941
vn 0.000000 0.000000 -1.000000
v -509.999573 -0.000554 -165.000488 0.752941 0.752941 0.752941
vn 0.000000 0.000000 -1.000000
v 50.000427 -0.000554 -165.000488 0.752941 0.752941 0.752941
vn 0.000000 -0.000000 1.000000
v -509.999573 -410.000122 164.999451 0.752941 0.752941 0.752941
vn 0.000000 -0.000000 1.000000
v 50.000427 -0.000608 164.999512 0.752941 0.752941 0.752941
vn 0.000000 -0.000000 1.000000
v -509.999573 -0.000608 164.999512 0.752941 0.752941 0.752941
vn 0.000000 -0.000000 1.000000
v 50.000427 -410.000122 164.999451 0.752941 0.752941 0.752941
vn 0.000000 1.000000 0.000000
v 50.000427 -0.000608 164.999512 0.752941 0.752941 0.752941
vn 0.000000 1.000000 0.000000
v -509.999573 -0.000554 -165.000488 0.752941 0.752941 0.752941
vn 0.000000 1.000000 0.000000
v -509.999573 -0.000608 164.999512 0.752941 0.752941 0.752941
vn 0.000000 1.000000 0.000000
v 50.000427 -0.000554 -165.000488 0.752941 0.752941 0.752941
vn 0.000000 -1.000000 -0.000000
v -509.999573 -410.000061 -165.000549 0.752941 0.752941 0.752941
vn 0.000000 -1.000000 -0.000000
v 50.000427 -410.000061 -165.000549 0.752941 0.752941 0.752941
vn 0.000000 -1.000000 -0.000000
v -509.999573 -410.000122 164.999451 0.752941 0.752941 0.752941
vn 0.000000 -1.000000 -0.000000
v 50.000427 -410.000122 164.999451 0.752941 0.752941 0.752941
vn 1.000000 0.000000 0.000000
v 50.000427 -410.000061 -165.000549 0.752941 0.752941 0.752941
vn 1.000000 0.000000 0.000000
v 50.000427 -0.000608 164.999512 0.752941 0.752941 0.752941
vn 1.000000 0.000000 0.000000
v 50.000427 -0.000554 -165.000488 0.752941 0.752941 0.752941
vn 1.000000 0.000000 0.000000
v 50.000427 -410.000122 164.999451 0.752941 0.752941 0.752941
vn -1.000000 0.000000 0.000000
v -509.999573 -410.000061 -165.000549 0.752941 0.752941 0.752941
vn -1.000000 0.000000 0.000000
v -509.999573 -410.000122 164.999451 0.752941 0.752941 0.752941
vn -1.000000 0.000000 0.000000
v -509.999573 -0.000554 -165.000488 0.752941 0.752941 0.752941
vn -1.000000 0.000000 0.000000
v -509.999573 -0.000608 164.999512 0.752941 0.752941 0.752941
vn 0.000000 0.000000 -1.000000
v -279.999969 410.000336 -165.000427 0.752941 0.752941 0.752941
vn 0.000000 0.000000 -1.000000
v 280.000031 410.000336 -165.000427 0.752941 0.752941 0.752941
vn 0.000000 0.000000 -1.000000
v -279.999969 819.999817 -165.000351 0.752941 0.752941 0.752941
vn 0.000000 0.000000 -1.000000
v 280.000031 819.999817 -165.000351 0.752941 0.752941 0.752941
vn 0.000000 -1.000000 -0.000000
v -279.999969 410.000336 -165.000427 0.752941 0.752941 0.752941
vn 0.000000 -1.000000 -0.000000
v 280.000031 410.000336 -165.000427 0.752941 0.752941 0.752941
vn 0.000000 -1.000000 -0.000000
v -279.999969 410.000275 164.999573 0.752941 0.752941 0.752941
vn 0.000000 -1.000000 -0.000000
v 280.000031 410.000275 164.999573 0.752941 0.752941 0.752941
vn -1.000000 0.000000 0.000000
v -279.999969 410.000336 -165.000427 0.752941 0.752941 0.752941
vn -1.000000 0.000000 0.000000
v -279.999969 410.000275 164.999573 0.752941 0.752941 0.752941
vn -1.000000 0.000000 0.000000
v -279.999969 819.999817 -165.000351 0.752941 0.752941 0.752941
vn -1.000000 0.000000 0.000000
v -279.999969 819.999817 164.999649 0.752941 0.752941 0.752941
vn 1.000000 0.000000 0.000000
v 280.000031 410.000336 -165.000427 0.752941 0.752941 0.752941
vn 1.000000 0.000000 0.000000
v 280.000031 819.999817 164.999649 0.752941 0.752941 0.752941
vn 1.000000 0.000000 0.000000
v 280.000031 819.999817 -165.000351 0.752941 0.752941 0.752941
vn 1.000000 0.000000 0.000000
v 280.000031 410.000275 164.999573 0.752941 0.752941 0.752941
vn 0.000000 1.000000 0.000000
v 280.000031 819.999817 164.999649 0.752941 0.752941 0.752941
vn 0.000000 1.000000 0.000000
v -279.999969 819.999817 -165.000351 0.752941 0.752941 0.752941
vn 0.000000 1.000000 0.000000
v -279.999969 819.999817 164.999649 0.752941 0.752941 0.752941
vn 0.000000 1.000000 0.000000
v 280.000031 819.999817 -165.000351 0.752941 0.752941 0.752941
vn 0.000000 -0.000000 1.000000
v -279.999969 410.000275 164.999573 0.752941 0.752941 0.752941
vn 0.000000 -0.000000 1.000000
v 280.000031 819.999817 164.999649 0.752941 0.752941 0.752941
vn 0.000000 -0.000000 1.000000
v -279.999969 819.999817 164.999649 0.752941 0.752941 0.752941
vn 0.000000 -0.000000 1.000000
v 280.000031 410.000275 164.999573 0.752941 0.752941 0.752941
vn 1.000000 0.000000 -0.000000
v 50.000427 -819.999573 -394.999451 0.752941 0.752941 0.752941
vn 1.000000 0.000000 -0.000000
v 50.000458 -819.999756 165.000504 0.752941 0.752941 0.752941
vn 1.000000 0.000000 -0.000000
v 50.000427 -410.000092 -394.999298 0.752941 0.752941 0.752941
vn 1.000000 0.000000 -0.000000
v 50.000458 -410.000305 165.000702 0.752941 0.752941 0.752941
vn -0.000000 1.000000 0.000000
v -279.999817 -410.000305 165.000458 0.752941 0.752941 0.752941
vn -0.000000 1.000000 0.000000
v 50.000427 -410.000092 -394.999298 0.752941 0.752941 0.752941
vn -0.000000 1.000000 0.000000
v -279.999878 -410.000092 -394.999512 0.752941 0.752941 0.752941
vn -0.000000 1.000000 0.000000
v 50.000458 -410.000305 165.000702 0.752941 0.752941 0.752941
vn 0.000001 0.000000 -1.000000
v 50.000427 -819.999573 -394.999451 0.752941 0.752941 0.752941
vn 0.000001 0.000000 -1.000000
v -279.999878 -819.999573 -394.999664 0.752941 0.752941 0.752941
vn 0.000001 0.000000 -1.000000
v 50.000427 -410.000092 -394.999298 0.752941 0.752941 0.752941
vn 0.000001 0.000000 -1.000000
v -279.999878 -410.000092 -394.999512 0.752941 0.752941 0.752941
vn 0.000000 -1.000000 -0.000000
v 50.000427 -819.999573 -394.999451 0.752941 0.752941 0.752941
vn 0.000000 -1.000000 -0.000000
v 50.000458 -819.999756 165.000504 0.752941 0.752941 0.752941
vn 0.000000 -1.000000 -0.000000
v -279.999878 -819.999573 -394.999664 0.752941 0.752941 0.752941
vn 0.000000 -1.000000 -0.000000
v -279.999817 -819.999756 165.000259 0.752941 0.752941 0.752941
vn -1.000000 -0.000000 0.000000
v -279.999878 -819.999573 -394.999664 0.752941 0.752941 0.752941
vn -1.000000 -0.000000 0.000000
v -279.999817 -410.000305 165.000458 0.752941 0.752941 0.752941
vn -1.000000 -0.000000 0.000000
v -279.999878 -410.000092 -394.999512 0.752941 0.752941 0.752941
vn -1.000000 -0.000000 0.000000
v -279.999817 -819.999756 165.000259 0.752941 0.752941 0.752941
vn -0.000001 -0.000000 1.000000
v 50.000458 -819.999756 165.000504 0.752941 0.752941 0.752941
vn -0.000001 -0.000000 1.000000
v -279.999817 -410.000305 165.000458 0.752941 0.752941 0.752941
vn -0.000001 -0.000000 1.000000
v 50.000458 -410.000305 165.000702 0.752941 0.752941 0.752941
vn -0.000001 -0.000000 1.000000
v -279.999817 -819.999756 165.000259 0.752941 0.752941 0.752941
# 96 vertices, 0 vertices normals


usemtl material_0
f 3//3 4//4 2//2
f 2//2 1//1 3//3
f 7//7 5//5 8//8
f 8//8 6//6 7//7
f 9//9 10//10 11//11
f 10//10 9//9 12//12
f 13//13 14//14 15//15
f 16//16 15//15 14//14
f 19//19 18//18 20//20
f 19//19 17//17 18//18
f 24//24 21//21 23//23
f 23//23 22//22 24//24
f 27//27 28//28 26//26
f 26//26 25//25 27//27
f 31//31 29//29 32//32
f 32//32 30//30 31//31
f 33//33 34//34 35//35
f 34//34 33//33 36//36
f 37//37 38//38 39//39
f 40//40 39//39 38//38
f 44//44 41//41 43//43
f 43//43 42//42 44//44
f 47//47 46//46 48//48
f 47//47 45//45 46//46
f 51//51 52//52 50//50
f 50//50 49//49 51//51
f 53//53 54//54 55//55
f 56//56 55//55 54//54
f 59//59 58//58 60//60
f 59//59 57//57 58//58
f 64//64 61//61 63//63
f 63//63 62//62 64//64
f 65//65 66//66 67//67
f 66//66 65//65 68//68
f 71//71 69//69 72//72
f 72//72 70//70 71//71
f 75//75 76//76 74//74
f 74//74 73//73 75//75
f 77//77 78//78 79//79
f 78//78 77//77 80//80
f 83//83 82//82 84//84
f 83//83 81//81 82//82
f 85//85 86//86 87//87
f 88//88 87//87 86//86
f 91//91 89//89 92//92
f 92//92 90//90 91//91
f 96//96 93//93 95//95
f 95//95 94//94 96//96
# 48 faces, 0 coords texture

# End of File
